<?xml version="1.0" encoding="UTF-8"?>
<svg id="_レイヤー_2" data-name="レイヤー 2" xmlns="http://www.w3.org/2000/svg" viewBox="0 0 300.16 300.16">
  <defs>
    <style>
      .cls-1 {
        fill: #fff;
      }

      .cls-2 {
        fill: #3aae36;
      }
    </style>
  </defs>
  <g id="_レイヤー_1-2" data-name="レイヤー 1">
    <path class="cls-2" d="M54.2,300.16h191.77c29.93,0,54.2-24.26,54.2-54.2V54.2c0-29.93-24.26-54.2-54.2-54.2H54.2C24.26,0,0,24.26,0,54.2v191.77c0,29.93,24.26,54.2,54.2,54.2Z"/>
    <path class="cls-1" d="M259.41,136.88c0-48.9-49.03-88.69-109.28-88.69s-109.29,39.79-109.29,88.69c0,43.84,38.88,80.56,91.4,87.5,3.56.77,8.4,2.35,9.63,5.39,1.1,2.76.72,7.09.35,9.88,0,0-1.28,7.71-1.56,9.35-.48,2.76-2.19,10.81,9.46,5.89,11.66-4.91,62.93-37.06,85.86-63.46h0c15.85-17.36,23.44-34.99,23.44-54.56ZM107.35,165.98h-21.71c-3.16,0-5.73-2.57-5.73-5.74v-43.43c0-3.16,2.57-5.73,5.73-5.73s5.73,2.57,5.73,5.73v37.69h15.98c3.16,0,5.73,2.57,5.73,5.73s-2.57,5.74-5.73,5.74ZM129.8,160.24c0,3.16-2.57,5.74-5.73,5.74s-5.73-2.57-5.73-5.74v-43.43c0-3.16,2.57-5.73,5.73-5.73s5.73,2.57,5.73,5.73v43.43ZM182.08,160.24c0,2.48-1.57,4.66-3.92,5.44-.59.2-1.21.3-1.82.3-1.79,0-3.5-.86-4.58-2.29l-22.25-30.31v26.86c0,3.16-2.57,5.74-5.74,5.74s-5.74-2.57-5.74-5.74v-43.43c0-2.47,1.58-4.65,3.92-5.44.59-.2,1.2-.29,1.82-.29,1.78,0,3.5.86,4.58,2.29l22.26,30.31v-26.87c0-3.16,2.58-5.73,5.74-5.73s5.73,2.57,5.73,5.73v43.43ZM217.21,132.79c3.16,0,5.74,2.57,5.74,5.74s-2.57,5.73-5.74,5.73h-15.98v10.26h15.98c3.16,0,5.74,2.57,5.74,5.73s-2.58,5.74-5.74,5.74h-21.71c-3.15,0-5.73-2.57-5.73-5.74v-21.7h0v-21.72c0-3.16,2.57-5.73,5.73-5.73h21.71c3.16,0,5.74,2.57,5.74,5.73s-2.57,5.73-5.74,5.73h-15.98v10.26h15.98Z"/>
  </g>
</svg>