<?xml version="1.0" encoding="UTF-8"?>
<svg id="_レイヤー_2" data-name="レイヤー 2" xmlns="http://www.w3.org/2000/svg" viewBox="0 0 411.48 178.32">
  <defs>
    <style>
      .cls-1 {
        fill: #40bae1;
      }

      .cls-2 {
        fill: #e3ae34;
      }

      .cls-3 {
        fill: #5c60aa;
      }

      .cls-4 {
        fill: #31ae79;
      }

      .cls-5 {
        fill: #d12757;
      }
    </style>
  </defs>
  <g id="_レイヤー_1-2" data-name="レイヤー 1">
    <g id="_306-slack" data-name="306-slack">
      <g>
        <path class="cls-5" d="M270.63,112.68c0,10.31-8.42,18.73-18.73,18.73s-18.73-8.42-18.73-18.73,8.42-18.73,18.73-18.73h18.73v18.73Z"/>
        <path class="cls-5" d="M280.07,112.68c0-10.31,8.42-18.73,18.73-18.73s18.73,8.42,18.73,18.73v46.9c0,10.31-8.42,18.73-18.73,18.73s-18.73-8.42-18.73-18.73v-46.9h0Z"/>
        <path class="cls-1" d="M298.8,37.46c-10.31,0-18.73-8.42-18.73-18.73S288.49,0,298.8,0s18.73,8.42,18.73,18.73v18.73h-18.73Z"/>
        <path class="cls-1" d="M298.8,46.9c10.31,0,18.73,8.42,18.73,18.73s-8.42,18.73-18.73,18.73h-46.9c-10.31,0-18.73-8.42-18.73-18.73s8.42-18.73,18.73-18.73h46.9Z"/>
        <path class="cls-4" d="M374.02,65.63c0-10.31,8.42-18.73,18.73-18.73s18.73,8.42,18.73,18.73-8.42,18.73-18.73,18.73h-18.73v-18.73h0Z"/>
        <path class="cls-4" d="M364.58,65.63c0,10.31-8.42,18.73-18.73,18.73s-18.73-8.42-18.73-18.73V18.73c0-10.31,8.42-18.73,18.73-18.73s18.73,8.42,18.73,18.73v46.9h0Z"/>
        <path class="cls-2" d="M345.85,140.85c10.31,0,18.73,8.42,18.73,18.73s-8.42,18.73-18.73,18.73-18.73-8.42-18.73-18.73v-18.73h18.73Z"/>
        <path class="cls-2" d="M345.85,131.41c-10.31,0-18.73-8.42-18.73-18.73s8.42-18.73,18.73-18.73h46.9c10.31,0,18.73,8.42,18.73,18.73s-8.42,18.73-18.73,18.73h-46.9Z"/>
      </g>
    </g>
    <g id="Layer_2" data-name="Layer 2">
      <path class="cls-3" d="M166.92,46.15c-23.33-17.46-45.69-16.97-45.69-16.97l-2.28,2.61c27.74,8.32,40.63,20.56,40.63,20.56-39.69-21.85-90.24-21.69-131.51,0,0,0,13.38-12.89,42.75-21.21l-1.63-1.96s-22.19-.49-45.69,16.97c0,0-23.5,42.26-23.5,94.31,0,0,13.71,23.5,49.77,24.64,0,0,6.04-7.18,10.93-13.38-20.72-6.2-28.55-19.09-28.55-19.09,13.02,8.15,26.18,13.25,42.59,16.48,26.69,5.49,59.89-.15,84.68-16.48,0,0-8.16,13.22-29.53,19.25,4.89,6.04,10.77,13.05,10.77,13.05,36.06-1.14,49.77-24.64,49.77-24.47,0-52.05-23.5-94.31-23.5-94.31ZM64.78,125.28c-9.14,0-16.64-8-16.64-17.95.67-23.84,32.79-23.76,33.29,0,0,9.95-7.34,17.95-16.64,17.95ZM124.33,125.28c-9.14,0-16.64-8-16.64-17.95.73-23.79,32.45-23.8,33.29,0,0,9.95-7.34,17.95-16.64,17.95Z"/>
    </g>
  </g>
</svg>