<?xml version="1.0" encoding="UTF-8"?>
<svg id="_レイヤー_2" data-name="レイヤー 2" xmlns="http://www.w3.org/2000/svg" viewBox="0 0 316.2 350.77">
  <defs>
    <style>
      .cls-1 {
        fill: #4c4b4c;
      }
    </style>
  </defs>
  <g id="_レイヤー_1-2" data-name="レイヤー 1">
    <g>
      <path class="cls-1" d="M89.53,75.45h88.38c10.47,0,18.95-8.48,18.95-18.95v-18.98c0-10.47-8.48-18.95-18.95-18.95h-23.95c-.96-10.4-9.6-18.57-20.24-18.57s-19.29,8.17-20.25,18.57h-23.94c-10.47,0-18.96,8.48-18.96,18.95v18.98c0,10.47,8.49,18.95,18.96,18.95ZM133.72,11.14c5.13,0,9.28,4.16,9.28,9.28s-4.16,9.29-9.28,9.29-9.29-4.16-9.29-9.29,4.16-9.28,9.29-9.28Z"/>
      <path class="cls-1" d="M311.63,110.3c.05.05.09.11.13.16.04.04.1.07.13.1l-.26-.27Z"/>
      <path class="cls-1" d="M311.76,110.46c-6.12-6-15.93-5.97-22,.1l-13.93,13.93,21.87,21.87,13.93-13.93c6.06-6.07,6.09-15.86.13-21.98Z"/>
      <path class="cls-1" d="M175.14,275.39l47.47-47.46-28.35-28.35-47.47,47.47c-2.84,2.85-2.84,7.47,0,10.32l18.02,18.01c2.85,2.85,7.48,2.85,10.33,0Z"/>
      <polygon class="cls-1" points="132.15 286.24 125.58 292.83 129.36 296.62 135.95 290.04 164.16 280.8 141.39 258.03 132.15 286.24"/>
      <path class="cls-1" d="M245.15,69.05v63.9l22.29-22.29v-40.31c0-17.44-14.15-31.59-31.59-31.59h-27.85v17.73c0,2.13-.23,4.22-.65,6.23h31.48c3.49,0,6.32,2.83,6.32,6.32Z"/>
      <path class="cls-1" d="M245.15,313.26c0,3.49-2.83,6.32-6.32,6.32H28.6c-3.48,0-6.31-2.83-6.31-6.32V69.05c0-3.49,2.83-6.32,6.31-6.32h31.49c-.42-2.01-.66-4.1-.66-6.23v-17.73h-27.85C14.14,38.77,0,52.91,0,70.35v248.84c0,17.44,14.14,31.58,31.58,31.58h204.26c17.44,0,31.59-14.14,31.59-31.58v-120.33l-22.29,22.29v92.11h0Z"/>
      <path class="cls-1" d="M199.32,194.52l28.35,28.34,69.15-69.16-28.34-28.34-69.17,69.15ZM275.24,146.95c2.45,2.44,2.45,6.42,0,8.86l-33.65,33.65c-2.45,2.44-6.41,2.44-8.86,0-2.45-2.44-2.45-6.42,0-8.86l33.66-33.65c2.44-2.44,6.41-2.44,8.85,0Z"/>
      <polygon class="cls-1" points="46.49 125 68.86 147.38 77 139.25 99.38 116.86 91.24 108.73 68.86 131.11 54.63 116.86 46.49 125"/>
      <polygon class="cls-1" points="91.24 167.23 68.86 189.61 54.63 175.36 46.49 183.5 68.86 205.89 77 197.75 99.38 175.36 91.24 167.23"/>
      <polygon class="cls-1" points="54.63 233.86 46.49 242 68.86 264.39 77 256.25 99.38 233.86 91.24 225.73 68.86 248.11 54.63 233.86"/>
    </g>
  </g>
</svg>