<?xml version="1.0" encoding="UTF-8"?>
<svg id="_レイヤー_2" data-name="レイヤー 2" xmlns="http://www.w3.org/2000/svg" viewBox="0 0 288.44 269.12">
  <defs>
    <style>
      .cls-1 {
        fill: #cb6579;
        stroke: #fff;
        stroke-miterlimit: 10;
        stroke-width: 5px;
      }

      .cls-2 {
        fill: #fff;
      }
    </style>
  </defs>
  <g id="_レイヤー_1-2" data-name="レイヤー 1">
    <g>
      <path class="cls-2" d="M203.52,266.94l-38.08-101.55c-1.09-2.91-5.21-2.91-6.3,0l-38.08,101.55c-.49,1.31-1.75,2.18-3.15,2.18H5.86c-1.86,0-3.36-1.51-3.36-3.36v-10.09c0-1.86,1.51-3.36,3.36-3.36h67.89c1.4,0,2.66-.87,3.15-2.18L149.23,57.25c.29-.76.29-1.6,0-2.36l-18.88-50.34c-.82-2.2.8-4.55,3.15-4.55h18.04c1.4,0,2.66.87,3.15,2.18l4.44,11.84c1.09,2.91,5.21,2.91,6.3,0l4.44-11.84c.49-1.31,1.75-2.18,3.15-2.18h18.04c2.35,0,3.97,2.35,3.15,4.55l-18.88,50.34c-.29.76-.29,1.6,0,2.36l72.33,192.87c.49,1.31,1.75,2.18,3.15,2.18h34.25c1.86,0,3.36,1.51,3.36,3.36v10.09c0,1.86-1.51,3.36-3.36,3.36h-78.41c-1.4,0-2.66-.87-3.15-2.18Z"/>
      <path class="cls-1" d="M125.11,59.78c-13.06-6.74-28.12-10.16-44.05-9.14C39.25,53.32,5.3,87.31,2.67,129.12.04,170.97,28.04,206.74,66.41,216.2c3.33.82,6.76-.97,7.96-4.18l53.95-143.86c1.2-3.2-.18-6.8-3.22-8.37Z"/>
    </g>
  </g>
</svg>