<?xml version="1.0" encoding="UTF-8"?>
<svg id="_レイヤー_2" data-name="レイヤー 2" xmlns="http://www.w3.org/2000/svg" xmlns:xlink="http://www.w3.org/1999/xlink" viewBox="0 0 612.65 322.08">
  <defs>
    <style>
      .cls-1 {
        fill: #f5bc2d;
      }

      .cls-2 {
        font-family: Outfit-Black, Outfit;
        font-size: 60px;
        font-variation-settings: 'wght' 900;
        font-weight: 800;
      }

      .cls-2, .cls-3 {
        fill: #fff;
      }

      .cls-4 {
        fill: url(#_名称未設定グラデーション_5);
      }

      .cls-5 {
        fill: url(#_名称未設定グラデーション_4);
      }

      .cls-6 {
        fill: url(#_名称未設定グラデーション_3);
      }

      .cls-7 {
        fill: url(#_名称未設定グラデーション_2);
      }

      .cls-8 {
        fill: #040000;
      }

      .cls-9 {
        fill: #3e3d3d;
      }
    </style>
    <linearGradient id="_名称未設定グラデーション_5" data-name="名称未設定グラデーション 5" x1="83.49" y1="302.39" x2="522.96" y2="-1.79" gradientTransform="translate(0 306.82) scale(1 -1)" gradientUnits="userSpaceOnUse">
      <stop offset="0" stop-color="#999"/>
      <stop offset="1" stop-color="#4e4d4d"/>
    </linearGradient>
    <linearGradient id="_名称未設定グラデーション_2" data-name="名称未設定グラデーション 2" x1="527.81" y1="87.76" x2="92.16" y2="200.46" gradientTransform="translate(0 306.82) scale(1 -1)" gradientUnits="userSpaceOnUse">
      <stop offset="0" stop-color="#999"/>
      <stop offset="1" stop-color="#666767"/>
    </linearGradient>
    <linearGradient id="_名称未設定グラデーション_3" data-name="名称未設定グラデーション 3" x1="4.1" y1="-15.54" x2="610.38" y2="4.12" gradientTransform="translate(0 306.82) scale(1 -1)" gradientUnits="userSpaceOnUse">
      <stop offset="0" stop-color="#666767"/>
      <stop offset=".3" stop-color="#636463"/>
      <stop offset=".56" stop-color="#585959"/>
      <stop offset=".81" stop-color="#464646"/>
      <stop offset="1" stop-color="#333"/>
    </linearGradient>
    <linearGradient id="_名称未設定グラデーション_4" data-name="名称未設定グラデーション 4" x1="0" y1="3.42" x2="612.65" y2="3.42" gradientTransform="translate(0 306.82) scale(1 -1)" gradientUnits="userSpaceOnUse">
      <stop offset="0" stop-color="#666767"/>
      <stop offset="0" stop-color="#777778"/>
      <stop offset="0" stop-color="#999"/>
      <stop offset=".01" stop-color="#b5b5b5"/>
      <stop offset=".02" stop-color="#cbcbcb"/>
      <stop offset=".02" stop-color="#dbdada"/>
      <stop offset=".03" stop-color="#e4e3e3"/>
      <stop offset=".04" stop-color="#e6e6e5"/>
      <stop offset=".05" stop-color="#d4d4d4"/>
      <stop offset=".07" stop-color="#bfbebe"/>
      <stop offset=".09" stop-color="#aeadad"/>
      <stop offset=".12" stop-color="#a2a2a2"/>
      <stop offset=".15" stop-color="#9b9b9b"/>
      <stop offset=".26" stop-color="#999"/>
      <stop offset=".94" stop-color="#666767"/>
      <stop offset=".95" stop-color="#7a7a7a"/>
      <stop offset=".97" stop-color="#afafaf"/>
      <stop offset=".98" stop-color="#e6e6e5"/>
      <stop offset="1" stop-color="#333"/>
    </linearGradient>
  </defs>
  <g id="_レイヤー_1-2" data-name="レイヤー 1">
    <g>
      <path class="cls-4" d="M102.06,309.21c-12.24,0-22.2,4.32-22.2-7.92V22.2c0-12.24,9.96-22.2,22.2-22.2h408.44c12.24,0,22.2,9.96,22.2,22.2v279.09c0,12.24-9.96,7.92-22.2,7.92H102.06Z"/>
      <path class="cls-7" d="M102.06,318.96c-9.74,0-17.67-7.93-17.67-17.67V22.21c0-9.74,7.93-17.67,17.67-17.67h408.44c9.74,0,17.67,7.93,17.67,17.67v279.09c0,9.74-7.92,17.67-17.67,17.67H102.06Z"/>
      <path class="cls-8" d="M525.14,301.29c0,8.09-6.56,14.64-14.64,14.64H102.06c-8.09,0-14.65-6.56-14.65-14.64V22.21c0-8.09,6.56-14.65,14.65-14.65h408.44c8.09,0,14.64,6.56,14.64,14.65v279.09Z"/>
      <path class="cls-6" d="M612.65,312.74c0,5.16-15.84,9.34-21.88,9.34H21.88c-6.04,0-21.88-4.18-21.88-9.34s4.9-9.33,10.94-9.33h590.77c6.04,0,10.94,4.18,10.94,9.34h0Z"/>
      <rect class="cls-5" x="0" y="294.06" width="612.65" height="18.68"/>
      <rect class="cls-1" x="98.47" y="20.54" width="415.72" height="251.63"/>
      <path class="cls-8" d="M582.98,303.66c0,.68-1.02,1.23-2.27,1.23h-10.9c-1.26,0-2.27-.55-2.27-1.23s1.01-1.23,2.27-1.23h10.9c1.25,0,2.27.54,2.27,1.23h0Z"/>
      <path class="cls-9" d="M348.59,300.38h-84.5c-1.82,0-3.29-1.38-3.29-3.07v-3.07h91.09v3.07c0,1.69-1.49,3.07-3.29,3.07h0Z"/>
    </g>
    <text class="cls-2" transform="translate(228.39 234.82)"><tspan x="0" y="0">Slack</tspan></text>
    <g id="_306-slack" data-name="306-slack">
      <g>
        <path class="cls-3" d="M277.48,129.65c0,5.75-4.7,10.45-10.45,10.45s-10.45-4.7-10.45-10.45,4.7-10.45,10.45-10.45h10.45v10.45Z"/>
        <path class="cls-3" d="M282.75,129.65c0-5.75,4.7-10.45,10.45-10.45s10.45,4.7,10.45,10.45v26.17c0,5.75-4.7,10.45-10.45,10.45s-10.45-4.7-10.45-10.45v-26.17h0Z"/>
        <path class="cls-3" d="M293.2,87.67c-5.75,0-10.45-4.7-10.45-10.45s4.7-10.45,10.45-10.45,10.45,4.7,10.45,10.45v10.45h-10.45Z"/>
        <path class="cls-3" d="M293.2,92.94c5.75,0,10.45,4.7,10.45,10.45s-4.7,10.45-10.45,10.45h-26.17c-5.75,0-10.45-4.7-10.45-10.45s4.7-10.45,10.45-10.45h26.17Z"/>
        <path class="cls-3" d="M335.18,103.4c0-5.75,4.7-10.45,10.45-10.45s10.45,4.7,10.45,10.45-4.7,10.45-10.45,10.45h-10.45v-10.45h0Z"/>
        <path class="cls-3" d="M329.91,103.4c0,5.75-4.7,10.45-10.45,10.45s-10.45-4.7-10.45-10.45v-26.17c0-5.75,4.7-10.45,10.45-10.45s10.45,4.7,10.45,10.45v26.17h0Z"/>
        <path class="cls-3" d="M319.45,145.37c5.75,0,10.45,4.7,10.45,10.45s-4.7,10.45-10.45,10.45-10.45-4.7-10.45-10.45v-10.45h10.45Z"/>
        <path class="cls-3" d="M319.45,140.1c-5.75,0-10.45-4.7-10.45-10.45s4.7-10.45,10.45-10.45h26.17c5.75,0,10.45,4.7,10.45,10.45s-4.7,10.45-10.45,10.45h-26.17Z"/>
      </g>
    </g>
  </g>
</svg>