<?xml version="1.0" encoding="UTF-8"?>
<svg id="_レイヤー_2" data-name="レイヤー 2" xmlns="http://www.w3.org/2000/svg" xmlns:xlink="http://www.w3.org/1999/xlink" viewBox="0 0 612.65 322.08">
  <defs>
    <style>
      .cls-1 {
        font-family: Outfit-Black, Outfit;
        font-size: 60px;
        font-variation-settings: 'wght' 900;
        font-weight: 800;
      }

      .cls-1, .cls-2 {
        fill: #fff;
      }

      .cls-3 {
        fill: url(#_名称未設定グラデーション_5);
      }

      .cls-4 {
        fill: url(#_名称未設定グラデーション_4);
      }

      .cls-5 {
        fill: url(#_名称未設定グラデーション_3);
      }

      .cls-6 {
        fill: url(#_名称未設定グラデーション_2);
      }

      .cls-7 {
        stroke: #fff;
        stroke-miterlimit: 10;
        stroke-width: 3px;
      }

      .cls-7, .cls-8 {
        fill: #cb6579;
      }

      .cls-9 {
        fill: #040000;
      }

      .cls-10 {
        fill: #3e3d3d;
      }
    </style>
    <linearGradient id="_名称未設定グラデーション_5" data-name="名称未設定グラデーション 5" x1="83.54" y1="-943.69" x2="523.01" y2="-1247.87" gradientTransform="translate(0 -939.25) scale(1 -1)" gradientUnits="userSpaceOnUse">
      <stop offset="0" stop-color="#999"/>
      <stop offset="1" stop-color="#4e4d4d"/>
    </linearGradient>
    <linearGradient id="_名称未設定グラデーション_2" data-name="名称未設定グラデーション 2" x1="527.86" y1="-1158.32" x2="92.22" y2="-1045.61" gradientTransform="translate(0 -939.25) scale(1 -1)" gradientUnits="userSpaceOnUse">
      <stop offset="0" stop-color="#999"/>
      <stop offset="1" stop-color="#666767"/>
    </linearGradient>
    <linearGradient id="_名称未設定グラデーション_3" data-name="名称未設定グラデーション 3" x1="4.1" y1="-1261.62" x2="610.38" y2="-1241.96" gradientTransform="translate(0 -939.25) scale(1 -1)" gradientUnits="userSpaceOnUse">
      <stop offset="0" stop-color="#666767"/>
      <stop offset=".3" stop-color="#636463"/>
      <stop offset=".56" stop-color="#585959"/>
      <stop offset=".81" stop-color="#464646"/>
      <stop offset="1" stop-color="#333"/>
    </linearGradient>
    <linearGradient id="_名称未設定グラデーション_4" data-name="名称未設定グラデーション 4" x1="0" y1="-1242.66" x2="612.65" y2="-1242.66" gradientTransform="translate(0 -939.25) scale(1 -1)" gradientUnits="userSpaceOnUse">
      <stop offset="0" stop-color="#666767"/>
      <stop offset="0" stop-color="#777778"/>
      <stop offset="0" stop-color="#999"/>
      <stop offset=".01" stop-color="#b5b5b5"/>
      <stop offset=".02" stop-color="#cbcbcb"/>
      <stop offset=".02" stop-color="#dbdada"/>
      <stop offset=".03" stop-color="#e4e3e3"/>
      <stop offset=".04" stop-color="#e6e6e5"/>
      <stop offset=".05" stop-color="#d4d4d4"/>
      <stop offset=".07" stop-color="#bfbebe"/>
      <stop offset=".09" stop-color="#aeadad"/>
      <stop offset=".12" stop-color="#a2a2a2"/>
      <stop offset=".15" stop-color="#9b9b9b"/>
      <stop offset=".26" stop-color="#999"/>
      <stop offset=".94" stop-color="#666767"/>
      <stop offset=".95" stop-color="#7a7a7a"/>
      <stop offset=".97" stop-color="#afafaf"/>
      <stop offset=".98" stop-color="#e6e6e5"/>
      <stop offset="1" stop-color="#333"/>
    </linearGradient>
  </defs>
  <g id="_レイヤー_1-2" data-name="レイヤー 1">
    <path class="cls-3" d="M102.11,309.21c-12.24,0-22.2,4.32-22.2-7.92V22.2c0-12.24,9.96-22.2,22.2-22.2h408.44c12.24,0,22.2,9.96,22.2,22.2v279.09c0,12.24-9.96,7.92-22.2,7.92H102.11Z"/>
    <path class="cls-6" d="M102.11,318.96c-9.74,0-17.67-7.93-17.67-17.67V22.21c0-9.74,7.93-17.67,17.67-17.67h408.44c9.74,0,17.67,7.93,17.67,17.67v279.09c0,9.74-7.92,17.67-17.67,17.67H102.11Z"/>
    <path class="cls-9" d="M525.19,301.29c0,8.09-6.56,14.64-14.64,14.64H102.11c-8.09,0-14.65-6.56-14.65-14.64V22.21c0-8.09,6.56-14.65,14.65-14.65h408.44c8.09,0,14.64,6.56,14.64,14.65v279.09Z"/>
    <path class="cls-5" d="M612.65,312.74c0,5.16-15.84,9.34-21.88,9.34H21.88c-6.04,0-21.88-4.18-21.88-9.34s4.9-9.33,10.94-9.33h590.77c6.04,0,10.94,4.18,10.94,9.34h0Z"/>
    <rect class="cls-4" x="0" y="294.06" width="612.65" height="18.68"/>
    <rect class="cls-8" x="98.47" y="20.54" width="415.72" height="251.63"/>
    <path class="cls-10" d="M348.58,300.38h-84.5c-1.82,0-3.29-1.38-3.29-3.07v-3.07h91.09v3.07c0,1.69-1.49,3.07-3.29,3.07h0Z"/>
    <text class="cls-1" transform="translate(193.26 227.46)"><tspan x="0" y="0">Ghoona</tspan></text>
    <g>
      <path class="cls-2" d="M329.4,169.4l-15.14-40.37c-.43-1.16-2.07-1.16-2.5,0l-15.14,40.37c-.2.52-.69.87-1.25.87h-44.54c-.74,0-1.34-.6-1.34-1.34v-4.01c0-.74.6-1.34,1.34-1.34h26.99c.56,0,1.06-.35,1.25-.87l28.75-76.67c.11-.3.11-.64,0-.94l-7.5-20.01c-.33-.87.32-1.81,1.25-1.81h7.17c.56,0,1.06.35,1.25.87l1.77,4.71c.43,1.16,2.07,1.16,2.5,0l1.77-4.71c.2-.52.69-.87,1.25-.87h7.17c.93,0,1.58.93,1.25,1.81l-7.5,20.01c-.11.3-.11.64,0,.94l28.75,76.67c.2.52.69.87,1.25.87h13.62c.74,0,1.34.6,1.34,1.34v4.01c0,.74-.6,1.34-1.34,1.34h-31.17c-.56,0-1.06-.35-1.25-.87Z"/>
      <path class="cls-7" d="M298.23,87.06c-5.19-2.68-11.18-4.04-17.51-3.63-16.62,1.07-30.11,14.58-31.16,31.2-1.05,16.64,10.09,30.86,25.34,34.61,1.32.33,2.69-.39,3.17-1.66l21.44-57.19c.48-1.27-.07-2.7-1.28-3.33Z"/>
    </g>
  </g>
</svg>