<?xml version="1.0" encoding="UTF-8"?>
<svg id="_レイヤー_2" data-name="レイヤー 2" xmlns="http://www.w3.org/2000/svg" viewBox="0 0 400 376.47">
  <defs>
    <style>
      .cls-1 {
        fill: #d5687d;
      }

      .cls-2 {
        fill: #252526;
      }
    </style>
  </defs>
  <g id="_レイヤー_1-2" data-name="レイヤー 1">
    <path fill="white" class="cls-2" d="M281.21,373.42l-53.27-142.06c-1.53-4.07-7.29-4.07-8.81,0l-53.27,142.06c-.69,1.84-2.44,3.05-4.41,3.05H4.71c-2.6,0-4.71-2.11-4.71-4.71v-14.12c0-2.6,2.11-4.71,4.71-4.71h94.97c1.96,0,3.72-1.22,4.41-3.05L205.26,80.08c.4-1.07.4-2.24,0-3.3L178.85,6.36c-1.15-3.08,1.12-6.36,4.41-6.36h25.24c1.96,0,3.72,1.22,4.41,3.05l6.21,16.57c1.53,4.07,7.29,4.07,8.81,0l6.21-16.57c.69-1.84,2.44-3.05,4.41-3.05h25.24c3.29,0,5.56,3.28,4.41,6.36l-26.41,70.42c-.4,1.07-.4,2.24,0,3.3l101.18,269.8c.69,1.84,2.44,3.05,4.41,3.05h47.92c2.6,0,4.71,2.11,4.71,4.71v14.12c0,2.6-2.11,4.71-4.71,4.71h-109.68c-1.96,0-3.72-1.22-4.41-3.05Z"/>
    <path class="cls-1" d="M171.51,83.62c-18.27-9.43-39.33-14.21-61.62-12.79C51.41,74.59,3.92,122.13.24,180.62c-3.69,58.55,35.49,108.59,89.17,121.81,4.66,1.15,9.46-1.36,11.14-5.85l75.47-201.25c1.68-4.48-.25-9.52-4.5-11.71Z"/>
  </g>
</svg>